<svg class="svg-canvas" viewBox="0 0 800 600" width="1600" height="1200" preserveAspectRatio="none" version="1.1" xmlns="http://www.w3.org/2000/svg" xmlns:xlink="http://www.w3.org/1999/xlink">
        <!--滤镜-->
        <defs></defs>

        <!-- 背景 -->
        <g id="background">
            
            
          </g>

        <!--元素-->
        
                <g id="shape_W7YDZ35Q8m" ref="shape_W7YDZ35Q8m" key="shape_W7YDZ35Q8m" mask="">
                  <g transform="translate(25.587234583520683,111.93623657607071) rotate(0,413.0312384046893,206.5312384046893) scale(1,1)" style="opacity: 1;mix-blend-mode: undefined;" filter="">
                    <!--普通元素-->
                    <svg xmlns="http://www.w3.org/2000/svg" version="1.1" xmlns:xlink="http://www.w3.org/1999/xlink" width="826.0624768093785" height="413.0624768093786" viewBox="0 0 826.0624768093785 413.0624768093786" data-ligature="true" data-parent="shape_W7YDZ35Q8m"><g data-role="text" data-width="413.36504174396873" data-height="59" transform="translate(177.0312384046893, 177.0312384046893)"><path d="M3.25-28.09L28.03-28.09L28.03-27.03L14.04-1.06L14.81-1.06Q19.77-1.06 22.60-3.66Q25.43-6.26 27.03-12.10L27.03-12.10L27.85-12.10L26.91 0L2.12 0L2.12-0.89L16.35-27.03L15.70-27.03Q9.74-27.03 7.41-25.08Q5.07-23.13 3.25-16.76L3.25-16.76L2.48-16.76L3.25-28.09Z" transform="translate(0 52) skewX(-14)" fill="#0D2851" stroke="#0D2851" stroke-width="0.098" data-glyph-w="30.6852" data-glyph-h="79.60449" data-glyph-ascender="62.43258" data-glyph-descender="-17.17191" data-kerning="0"></path><path d="M16.11 0.59Q8.50 0.59 4.69-3.33Q0.89-7.26 0.89-14.25Q0.89-21.24 5.16-24.96Q9.44-28.68 16.05-28.68L16.05-28.68Q29.45-28.68 28.91-15.22L28.91-15.22L12.27-15.22L12.27-12.92Q12.27-7.14 13.75-4.19Q15.22-1.24 18.88-1.24L18.88-1.24Q25.73-1.24 27.85-8.56L27.85-8.56L28.91-8.38Q27.79-4.13 24.87-1.77Q21.95 0.59 16.11 0.59L16.11 0.59ZM12.33-19.30L12.33-16.40L18.41-16.40L18.41-19.30Q18.41-24.08 17.85-25.82Q17.29-27.56 15.61-27.56Q13.93-27.56 13.13-25.70Q12.33-23.84 12.33-19.30L12.33-19.30Z" transform="translate(30.095095871984366 52) skewX(-14)" fill="#0D2851" stroke="#0D2851" stroke-width="0.098" data-glyph-w="30.44916" data-glyph-h="79.60449" data-glyph-ascender="62.43258" data-glyph-descender="-17.17191" data-kerning="-0.5901041280156311"></path><path d="M0.71-27.03L0.71-28.09L14.93-28.09L14.93-22.66Q15.87-25.37 17.82-27.03Q19.77-28.68 23.72-28.68L23.72-28.68Q32.87-28.68 32.87-18.82L32.87-18.82L32.87-1.06L36.17-1.06L36.17 0L19.47 0L19.47-1.06L21.89-1.06L21.89-20.24Q21.89-23.78 21.42-24.81Q20.95-25.85 19.71-25.85L19.71-25.85Q17.82-25.85 16.38-23.37Q14.93-20.89 14.93-17.35L14.93-17.35L14.93-1.06L17.47-1.06L17.47 0L0.71 0L0.71-1.06L3.95-1.06L3.95-27.03L0.71-27.03Z" transform="translate(60.54425587198436 52) skewX(-14)" fill="#0D2851" stroke="#0D2851" stroke-width="0.098" data-glyph-w="36.35016" data-glyph-h="79.60449" data-glyph-ascender="62.43258" data-glyph-descender="-17.17191" data-kerning="0"></path><path d="M9.26-32.16Q6.14-32.16 4.81-33.75Q3.48-35.35 3.48-37.71Q3.48-40.07 4.93-41.60Q6.37-43.14 9.32-43.14Q12.27-43.14 13.81-41.75Q15.34-40.36 15.34-37.80Q15.34-35.23 13.87-33.69Q12.39-32.16 9.26-32.16ZM0.35-27.03L0.35-28.09L14.81-28.09L14.81-1.06L18.12-1.06L18.12 0L0.59 0L0.59-1.06L3.84-1.06L3.84-27.03L0.35-27.03Z" transform="translate(96.89441587198436 52) skewX(-14)" fill="#0D2851" stroke="#0D2851" stroke-width="0.098" data-glyph-w="18.70617" data-glyph-h="79.60449" data-glyph-ascender="62.43258" data-glyph-descender="-17.17191" data-kerning="0"></path><path d="M3.54-8.44L3.54-8.44L3.54-27.03L0.30-27.03L0.30-28.09L3.54-28.09L3.54-35.70L14.52-38.42L14.52-28.09L22.19-28.09L22.19-27.03L14.52-27.03L14.52-7.14Q14.52-4.37 15.08-3.07Q15.64-1.77 17.41-1.77Q19.18-1.77 20.51-3.54Q21.83-5.31 22.25-8.38L22.25-8.38L23.25-8.26Q22.78-4.19 20.65-1.80Q18.53 0.59 13.63 0.59Q8.73 0.59 6.14-1.36Q3.54-3.30 3.54-8.44Z" transform="translate(115.60058587198436 52) skewX(-14)" fill="#0D2851" stroke="#0D2851" stroke-width="0.098" data-glyph-w="23.24994" data-glyph-h="79.60449" data-glyph-ascender="62.43258" data-glyph-descender="-17.17191" data-kerning="0"></path><path d="M0.59-43.20L0.59-44.26L14.81-44.26L14.81-22.66Q15.76-25.37 17.70-27.03Q19.65-28.68 23.60-28.68L23.60-28.68Q32.75-28.68 32.75-18.82L32.75-18.82L32.75-1.06L36.06-1.06L36.06 0L19.36 0L19.36-1.06L21.77-1.06L21.77-20.24Q21.77-23.78 21.30-24.81Q20.83-25.85 19.59-25.85L19.59-25.85Q17.70-25.85 16.26-23.37Q14.81-20.89 14.81-17.35L14.81-17.35L14.81-1.06L17.35-1.06L17.35 0L0.59 0L0.59-1.06L3.84-1.06L3.84-43.20L0.59-43.20Z" transform="translate(138.85052587198436 52) skewX(-14)" fill="#0D2851" stroke="#0D2851" stroke-width="0.098" data-glyph-w="36.35016" data-glyph-h="79.60449" data-glyph-ascender="62.43258" data-glyph-descender="-17.17191" data-kerning="0"></path><path d="M0,0Z" transform="translate(175.20068587198438 52) skewX(-14)" fill="#0D2851" stroke="#0D2851" stroke-width="0.098" data-glyph-w="10.6218" data-glyph-h="79.60449" data-glyph-ascender="62.43258" data-glyph-descender="-17.17191" data-kerning="0"></path><path d="M17.11-27.62L17.11-27.62Q14.52-27.62 13.40-24.78Q12.27-21.95 12.27-15.40L12.27-15.40L12.27-12.33Q12.27-6.49 13.57-3.95Q14.87-1.42 18.35-1.42Q21.83-1.42 23.90-3.78Q25.96-6.14 26.55-9.15L26.55-9.15L27.62-9.03Q26.50-3.95 23.49-1.71L23.49-1.71Q20.42 0.59 15.05 0.59L15.05 0.59Q8.20 0.59 4.54-3.10Q0.89-6.79 0.89-13.90Q0.89-21.01 5.05-24.84Q9.21-28.68 16.64-28.68L16.64-28.68Q21.89-28.68 24.67-26.64Q27.44-24.61 27.44-21.54Q27.44-18.47 26.11-17.05Q24.78-15.64 22.45-15.64Q20.12-15.64 18.71-16.88Q17.29-18.12 17.29-20.54L17.29-20.54Q17.29-21.60 17.58-22.66L17.58-22.66L19.53-22.66Q19.95-23.84 19.95-24.78L19.95-24.78Q19.95-27.62 17.11-27.62Z" transform="translate(185.82248587198438 52) skewX(-14)" fill="#0D2851" stroke="#0D2851" stroke-width="0.098" data-glyph-w="28.501829999999998" data-glyph-h="79.60449" data-glyph-ascender="62.43258" data-glyph-descender="-17.17191" data-kerning="0"></path><path d="M0.35-43.20L0.35-44.26L14.81-44.26L14.81-1.06L18.12-1.06L18.12 0L0.59 0L0.59-1.06L3.84-1.06L3.84-43.20L0.35-43.20Z" transform="translate(213.73421174396873 52) skewX(-14)" fill="#0D2851" stroke="#0D2851" stroke-width="0.098" data-glyph-w="18.64716" data-glyph-h="79.60449" data-glyph-ascender="62.43258" data-glyph-descender="-17.17191" data-kerning="-0.5901041280156311"></path><path d="M19.65-11.62L19.65-11.62L19.65-16.64Q19.65-22.36 19.03-24.99Q18.41-27.62 16.17-27.62L16.17-27.62Q14.87-27.62 14.07-26.88Q13.28-26.14 12.92-24.43L12.92-24.43Q12.39-21.77 12.39-16.35L12.39-16.35L12.39-11.74Q12.39-5.31 12.78-4.01Q13.16-2.71 13.57-1.89L13.57-1.89Q14.22-0.47 16.11-0.47L16.11-0.47Q18.41-0.47 19.12-3.13L19.12-3.13Q19.65-5.02 19.65-11.62ZM15.99 0.59Q8.62 0.59 4.84-3.19Q1.06-6.96 1.06-14.01Q1.06-21.07 5.10-24.87Q9.15-28.68 16.46-28.68Q23.78-28.68 27.38-25.17Q30.98-21.66 30.98-14.46L30.98-14.46Q30.98 0.59 15.99 0.59L15.99 0.59Z" transform="translate(232.38137174396874 52) skewX(-14)" fill="#0D2851" stroke="#0D2851" stroke-width="0.098" data-glyph-w="32.04243" data-glyph-h="79.60449" data-glyph-ascender="62.43258" data-glyph-descender="-17.17191" data-kerning="0"></path><path d="M35.11-1.06L35.11 0L21.66 0L21.01-4.31Q20.06-1.95 18.20-0.68Q16.35 0.59 12.69 0.59L12.69 0.59Q3.54 0.59 3.54-9.26L3.54-9.26L3.54-27.03L0.24-27.03L0.24-28.09L14.52-28.09L14.52-7.85Q14.52-4.31 15.02-3.19Q15.52-2.07 17.02-2.07Q18.53-2.07 19.71-3.89Q20.89-5.72 20.89-8.97L20.89-8.97L20.89-27.03L18.18-27.03L18.18-28.09L31.87-28.09L31.87-1.06L35.11-1.06Z" transform="translate(264.42380174396874 52) skewX(-14)" fill="#0D2851" stroke="#0D2851" stroke-width="0.098" data-glyph-w="35.70105" data-glyph-h="79.60449" data-glyph-ascender="62.43258" data-glyph-descender="-17.17191" data-kerning="0"></path><path d="M12.57-12.22Q12.57-6.02 13.22-3.98Q13.87-1.95 15.61-1.95Q17.35-1.95 18.62-3.48Q19.89-5.02 19.89-8.03L19.89-8.03L19.89-20.89Q19.89-23.43 18.88-25.20Q17.88-26.97 15.93-26.97Q13.99-26.97 13.28-24.37Q12.57-21.77 12.57-15.28L12.57-15.28L12.57-12.22ZM33.75 0L20.65 0L20.00-4.13Q18.00 0.59 11.86 0.59L11.86 0.59Q6.79 0.59 3.98-3.07Q1.18-6.73 1.18-13.99L1.18-13.99Q1.18-28.68 12.86-28.68L12.86-28.68Q18.06-28.68 19.71-25.79L19.71-25.79L19.71-43.20L16.11-43.20L16.11-44.26L30.86-44.26L30.86-1.06L33.75-1.06L33.75 0Z" transform="translate(300.12485174396875 52) skewX(-14)" fill="#0D2851" stroke="#0D2851" stroke-width="0.098" data-glyph-w="34.69788" data-glyph-h="79.60449" data-glyph-ascender="62.43258" data-glyph-descender="-17.17191" data-kerning="0"></path><path d="M36.29 0L19.89 0L19.89-1.06L22.60-1.06L15.93-14.75L14.81-14.46L14.81-1.06L17.53-1.06L17.53 0L0.59 0L0.59-1.06L3.84-1.06L3.84-43.20L0.35-43.20L0.35-44.26L14.81-44.26L14.81-15.64L15.76-15.99L29.03-27.03L23.49-27.03L23.49-28.09L35.11-28.09L35.11-27.03L30.98-27.03L23.96-21.07L34.17-1.06L36.29-1.06L36.29 0Z" transform="translate(334.82273174396875 52) skewX(-14)" fill="#0D2851" stroke="#0D2851" stroke-width="0.098" data-glyph-w="36.5862" data-glyph-h="79.60449" data-glyph-ascender="62.43258" data-glyph-descender="-17.17191" data-kerning="0"></path><path d="M9.26-32.16Q6.14-32.16 4.81-33.75Q3.48-35.35 3.48-37.71Q3.48-40.07 4.93-41.60Q6.37-43.14 9.32-43.14Q12.27-43.14 13.81-41.75Q15.34-40.36 15.34-37.80Q15.34-35.23 13.87-33.69Q12.39-32.16 9.26-32.16ZM0.35-27.03L0.35-28.09L14.81-28.09L14.81-1.06L18.12-1.06L18.12 0L0.59 0L0.59-1.06L3.84-1.06L3.84-27.03L0.35-27.03Z" transform="translate(371.40893174396876 52) skewX(-14)" fill="#0D2851" stroke="#0D2851" stroke-width="0.098" data-glyph-w="18.70617" data-glyph-h="79.60449" data-glyph-ascender="62.43258" data-glyph-descender="-17.17191" data-kerning="0"></path><path d="M3.54-8.44L3.54-8.44L3.54-27.03L0.30-27.03L0.30-28.09L3.54-28.09L3.54-35.70L14.52-38.42L14.52-28.09L22.19-28.09L22.19-27.03L14.52-27.03L14.52-7.14Q14.52-4.37 15.08-3.07Q15.64-1.77 17.41-1.77Q19.18-1.77 20.51-3.54Q21.83-5.31 22.25-8.38L22.25-8.38L23.25-8.26Q22.78-4.19 20.65-1.80Q18.53 0.59 13.63 0.59Q8.73 0.59 6.14-1.36Q3.54-3.30 3.54-8.44Z" transform="translate(390.11510174396875 52) skewX(-14)" fill="#0D2851" stroke="#0D2851" stroke-width="0.098" data-glyph-w="23.24994" data-glyph-h="79.60449" data-glyph-ascender="62.43258" data-glyph-descender="-17.17191" data-kerning="0"></path></g></svg>
                  </g>
                </g>
                <g id="shape_AjwXCJgVSQ" ref="shape_AjwXCJgVSQ" key="shape_AjwXCJgVSQ" mask="">
                  <g transform="translate(156,269.0453695867377) rotate(0,66.97454990944281,41.83216030570114) scale(1,1)" style="opacity: 1;mix-blend-mode: undefined;" filter="">
                    <!--普通元素-->
                    <svg version="1.1" id="图层_1" xmlns="http://www.w3.org/2000/svg" xmlns:xlink="http://www.w3.org/1999/xlink" x="0px" y="0px" width="133.94909981888563" height="83.66432061140227" viewBox="10.189589500427246 43.904483795166016 179.6204071044922 112.19052124023438" enable-background="new 0 0 200 200" xml:space="preserve" preserveAspectRatio="none" class="style-removed" data-parent="shape_AjwXCJgVSQ">
<g>
	<path fill="#DD3D24" d="M106.321,89.494c0,0,21.712-23.689,49.111-19.623c20.564,3.052,29.926,14.137,34.378,20.14H176.37
		c0,0-9.943-9.084-23.78-10.899C140.013,77.462,129.843,78.121,106.321,89.494z" stroke-width="0"></path>
	<path fill="#DD3D24" d="M147.161,71.716c0,0-5.801-22.574-33.028-27.054S61.92,55.92,43.31,82.687l22.517-4.021
		c0,0,19.354-29.195,47.101-24.24c16.083,2.872,24.699,10.109,27.916,18.496L147.161,71.716z" stroke-width="0"></path>
	<path fill="#246fdd" d="M62.38,83.893c0,0-46.698,7.782-51.696,38.255c-4.136,25.216,18.611,33.947,33.43,33.947
		c18.036,0,112.698,0,112.698,0l1.206-5.687c0,0-71.397,0.324-101.38,0c-15.968-0.172-28.147-4.996-28.147-22.574
		c0-14.992,12.867-26.502,29.065-32.034L62.38,83.893z" stroke-width="0"></path>
</g>
</svg>
                  </g>
                </g>
      </svg>