<svg id="图层_1" data-name="图层 1" xmlns="http://www.w3.org/2000/svg" viewBox="0 0 473.32 78.32"><defs><style>.cls-1{fill:#231815;fill-rule:evenodd;}</style></defs><path class="cls-1" d="M266.88,312.59c-3.32,1-7,.75-9.39,2-3.74,1.94-3.7,3.43-7.41,7.41-7.32,7.86-17.52,16.45-34.11,14.34-17.6-2.25-30.66-18.32-31.63-35.09a38.41,38.41,0,0,1,12.88-30.14v-9.37c0-1.94,1.48-3.92,4.52-3a95,95,0,0,1,10.1,4.5,34.43,34.43,0,0,1,19.68.24,101.78,101.78,0,0,1,10.58-4.74c3-.91,4.52,1.07,4.52,3v10.42a31.88,31.88,0,0,1,4.2,4.38c5.7,7.92-5,14.7-9.89,8.89-2.71-3.19-10.44-12.85-24.46-9.39-24.74,6.1-24.25,36.34-5.69,45,12.72,5.92,22.08.88,26.2-3,4.78-4.46,9.46-13.93,15.81-18,4.14-2.67,7.46-3.33,11.62-2.22C274.16,300.37,271.72,311.15,266.88,312.59Z" transform="translate(-184.28 -258.48)"/><path class="cls-1" d="M239.6,307.67c-.11.26-.24.51-.36.76a20,20,0,1,1-26.79-26.77l.68-.32c1.81-.79,2.62,1.49,1.4,2.08l-1,.46A17.5,17.5,0,1,0,237,307.37l.21-.43C238,305.28,240.24,306.12,239.6,307.67Zm-15.25,4.14-.62.13a12.37,12.37,0,0,1-2.37.22,12.63,12.63,0,1,1,3.5-24.77l.6.19a1.24,1.24,0,0,0,.87-2.32,2.53,2.53,0,0,0-.72-.23,15,15,0,0,0-4.25-.61,15.12,15.12,0,1,0,0,30.23,15.69,15.69,0,0,0,2.49-.2c.31-.06.61-.15.92-.19C227.1,314,227,311.17,224.35,311.81Zm-7.06-5.42a3.42,3.42,0,0,0-.4-.26,8,8,0,1,1,11.75-9.82c.07.17.13.35.21.52a1.15,1.15,0,0,0,2.08-1c-.09-.2-.16-.41-.25-.61A10.27,10.27,0,1,0,215.53,308l.43.28C217.06,309,218.13,307.09,217.29,306.39Z" transform="translate(-184.28 -258.48)"/><rect x="107.74" y="74.99" width="292.82" height="3.33"/><path d="M610.34,295.8l-28.88,41h4l26.67-38.08,12.94,22.91h-6.49v2.74h39v-2.74H653.8L632,283.42l9.42-13.58a26.37,26.37,0,0,1,6.13-6.54,12.6,12.6,0,0,1,6.59-2.18v-2.64H630.06v2.64h.8q4.39,0,6.3,1a3.32,3.32,0,0,1,1.9,3.2,6.79,6.79,0,0,1-.48,2.45,12.7,12.7,0,0,1-1.49,2.69l-6.86,10L619,261h6.32v-2.55h-39V261h4.18Z" transform="translate(-184.28 -258.48)"/><path d="M356.78,310.69V284.48H344.29L345.4,281H358v-5.22H324.34V277h-9.67v-3.44h40.82V261H344.11v7.39H330.78v-9.89H319.4v9.89H306V261H294.62v12.61h8.67V277H293.4v5.22h9.89v1h-8.67V308h-2.44v5.22H296l-.07.29a15.78,15.78,0,0,1-3.54,7.11L292,321l1.67,3.33h.46a12.42,12.42,0,0,0,5.14-1.29,15.68,15.68,0,0,0,7.95-9.08l.27-.74h2.95l4.25,9.89h10.53l.64,1.29.53-.08a22.68,22.68,0,0,0,14.45-7.45l4.85,6.24h13.07l-9.66-12.39ZM312,307v1H306v-1Zm0-6.17v1H306v-1Zm0-6.16v.94H306v-.94Zm0-6.23v1H306v-1Zm10,24.78h3.86v-2.5h6.82a31,31,0,0,1-7.67,9.52Zm25.85-2.71h-3.05a31.25,31.25,0,0,0,2.05-11.64v-8.2H335.45v8.2a26.37,26.37,0,0,1-.95,7.09V289.7h13.33Zm-23.21-28.23V281h9.31l-1.16,3.45h-7.21V308h-2.22V283.26h-8.67v-1Z" transform="translate(-184.28 -258.48)"/><path d="M427.69,290.92l.51,0,1.79-3.67-.72-.31a66.44,66.44,0,0,1-11.13-6.3,28.74,28.74,0,0,0,9.05-13.79l0-4.69H410.07a29.08,29.08,0,0,0,1.06-2.73l.33-1H400l-.17.51a34.41,34.41,0,0,1-8.49,13.32h0v-8.89h-7.09v54.44h-.74V258.48h-9.33v59.38h-.75V263.42h-7.08v59.66h25v-34.8l1.3,2.68.52,0a45,45,0,0,0,11.57-2.67v4.89H393.56v5.22h11.17V303h-9.88v5.22h9.88v4.66H392.34v5.23h12.39v6.16h11.39v-6.16H428.5v-5.23H416.12v-4.66H426V303h-9.88v-4.67h11.1v-5.22h-11.1v-4.89A45,45,0,0,0,427.69,290.92Zm-22.82-2.72a51.85,51.85,0,0,0,5.55-2.45A52.89,52.89,0,0,0,416,288.2Zm10.57-20.78a25.81,25.81,0,0,1-5,6.92,28.54,28.54,0,0,1-4.41-5.65c.36-.42.71-.84,1.05-1.27Zm-24.1,19.66V273.45l1.31,2.69.52-.05a15,15,0,0,0,4.27-1.22,29,29,0,0,0,5.26,5.81,65.66,65.66,0,0,1-11.13,6.3Z" transform="translate(-184.28 -258.48)"/><path d="M463.6,266.14h22v32.7c0,4.63-1.14,7.75-3.39,9.26l-.54.36,1.71,3.51h.47a14.19,14.19,0,0,0,6.56-1.68c4.36-2.18,6.58-6,6.58-11.45V261H436.1v5.16h16.11v51.72H434.88v5.22H500.7v-5.22H463.6Z" transform="translate(-184.28 -258.48)"/><polygon points="387.39 23.77 387.39 18.55 360.18 18.55 360.18 0 348.79 0 348.79 18.55 321.57 18.55 321.57 23.77 348.79 23.77 348.79 59.38 324.01 59.38 324.01 64.6 384.89 64.6 384.89 59.38 360.18 59.38 360.18 23.77 387.39 23.77"/></svg>