<svg id="图层_1" data-name="图层 1" xmlns="http://www.w3.org/2000/svg" viewBox="0 0 700.2 71.26"><defs><style>.cls-1{fill:#231815;fill-rule:evenodd;}</style></defs><path class="cls-1" d="M997.59,311.34c-3,.91-6.39.68-8.56,1.81-3.41,1.76-3.37,3.12-6.76,6.75-6.68,7.17-16,15-31.1,13.07-16-2.05-27.95-16.7-28.84-32a35.08,35.08,0,0,1,11.75-27.48V265c0-1.76,1.35-3.57,4.12-2.75a88.71,88.71,0,0,1,9.21,4.11,31.43,31.43,0,0,1,17.94.21,95.41,95.41,0,0,1,9.65-4.32c2.77-.82,4.11,1,4.12,2.75v9.5a29.71,29.71,0,0,1,3.82,4c5.2,7.22-4.52,13.4-9,8.11-2.47-2.91-9.52-11.71-22.3-8.56-22.56,5.56-22.11,33.13-5.19,41,11.6,5.4,20.13.81,23.89-2.7,4.35-4.06,8.62-12.7,14.42-16.45,3.77-2.43,6.79-3,10.59-2C1004.23,300.2,1002,310,997.59,311.34Z" transform="translate(-922.28 -262.01)"/><path class="cls-1" d="M972.71,306.86c-.09.23-.21.46-.32.68A18.21,18.21,0,1,1,948,283.14l.63-.29c1.64-.72,2.38,1.35,1.27,1.9-.3.14-.61.27-.91.42a16,16,0,1,0,21.41,21.41l.18-.39C971.29,304.67,973.3,305.44,972.71,306.86Zm-13.9,3.77-.56.12a11.89,11.89,0,0,1-2.16.2,11.52,11.52,0,1,1,0-23,11.65,11.65,0,0,1,3.19.45l.54.17a1.14,1.14,0,0,0,.8-2.12,2.12,2.12,0,0,0-.66-.21,13.78,13.78,0,1,0-3.87,27,14,14,0,0,0,2.26-.19c.29,0,.57-.13.85-.17C961.32,312.63,961.19,310,958.81,310.63Zm-6.43-4.95c-.11-.09-.25-.15-.37-.23a7.26,7.26,0,1,1,10.71-9c.07.16.12.33.2.48a1.06,1.06,0,0,0,1.9-.92c-.09-.18-.15-.36-.24-.54a9.36,9.36,0,1,0-13.8,11.64c.12.09.25.17.38.25C952.17,308,953.14,306.33,952.38,305.68Z" transform="translate(-922.28 -262.01)"/><path d="M1063.44,322.25h-40.6v-2.42l21-53.71H1043a14.29,14.29,0,0,0-10.81,4.64q-4.4,4.65-6.17,13.27h-2.1l1.06-20.17h39.29v2.26l-21,53.71h.84q7.38,0,11.53-4.6t6.52-15.62h2.06Z" transform="translate(-922.28 -262.01)"/><path d="M1105,304.46l-21.39,0v5q0,5.55,1.84,8.41a6,6,0,0,0,5.38,2.85,10.67,10.67,0,0,0,6.56-2.18,20.46,20.46,0,0,0,5.42-6.74l1.22,1.11a17.54,17.54,0,0,1-6.64,8.2,19.27,19.27,0,0,1-10.53,2.73q-8.73,0-13.94-5.87t-5.2-15.41q0-9.42,5.17-15.31a17.24,17.24,0,0,1,13.6-5.9q8.85,0,13.65,6T1105,304.46Zm-15-1.89V288.84a8.44,8.44,0,0,0-.78-4.15,2.63,2.63,0,0,0-2.44-1.31,2.59,2.59,0,0,0-2.41,1.31,8.44,8.44,0,0,0-.78,4.15v13.73Z" transform="translate(-922.28 -262.01)"/><path d="M1107.77,322.25V320h3.66V284.65h-3.66v-2.14h8.32a30.08,30.08,0,0,0,4.26-.29,29.42,29.42,0,0,0,4.13-.86h1.09l-.06,8h.65a12.75,12.75,0,0,1,4.27-5.91,10.81,10.81,0,0,1,6.56-2.06c3.42,0,5.87,1.16,7.37,3.47s2.23,6.35,2.23,12.11V320h3.6v2.26H1130V320h2V292.87a8.22,8.22,0,0,0-.5-3.29,1.65,1.65,0,0,0-1.56-1.07c-1.19,0-2.11.89-2.74,2.65a23.81,23.81,0,0,0-1,7.71V320h2v2.26Z" transform="translate(-922.28 -262.01)"/><path d="M1152.38,322.25V320h4.16V284.65h-3.72v-2.14h9a30.11,30.11,0,0,0,4.24-.29,28.69,28.69,0,0,0,4.14-.86h1.1V320h3.84v2.26Zm3.38-52.44a7.74,7.74,0,0,1,2.06-5.79,9.63,9.63,0,0,1,11.78,0,7.73,7.73,0,0,1,2.05,5.79,7.84,7.84,0,0,1-2.05,5.82,9.56,9.56,0,0,1-11.78,0A7.84,7.84,0,0,1,1155.76,269.81Z" transform="translate(-922.28 -262.01)"/><path d="M1181.28,314.69v-30h-4v-2.1a15.39,15.39,0,0,0,9.5-3.82q4.29-3.62,7.93-10.85H1196v14.63h7v2.14h-7V313.5a10,10,0,0,0,.44,3.7,1.59,1.59,0,0,0,1.59.94c1.11,0,2.06-.83,2.85-2.5a22.59,22.59,0,0,0,1.66-7h1.34c-.14,4.74-1.4,8.46-3.75,11.18a12,12,0,0,1-9.51,4.06q-4.73,0-7-2.28C1182.06,320.05,1181.28,317.76,1181.28,314.69Z" transform="translate(-922.28 -262.01)"/><path d="M1204.78,322.25V320h3.66V266h-3.66v-2.09h8.85a30.13,30.13,0,0,0,4.24-.31,31.73,31.73,0,0,0,4.14-.89h1.16V287.9h.63a14.69,14.69,0,0,1,4.52-5,10.37,10.37,0,0,1,5.68-1.56q5.13,0,7.36,3.47t2.24,12.11V320h3.6v2.26H1227V320h2V292.87a8.22,8.22,0,0,0-.5-3.29,1.66,1.66,0,0,0-1.57-1.07c-1.18,0-2.1.89-2.73,2.65a23.81,23.81,0,0,0-1,7.71V320h2v2.26Z" transform="translate(-922.28 -262.01)"/><path d="M1274,294.8v-2.34h25.37v2.34H1296l0,22.23a25.86,25.86,0,0,0-3.55.66,23.24,23.24,0,0,0-3.43,1.19c-.48.22-1.27.62-2.38,1.19q-7.07,3.78-12.67,3.78a20.25,20.25,0,0,1-8.44-1.72,21,21,0,0,1-7-5.26,31.57,31.57,0,0,1-6.07-10.6,38.76,38.76,0,0,1-2.22-13q0-13.32,7-21.92a22,22,0,0,1,18-8.61,18.46,18.46,0,0,1,6.42,1.09,21.93,21.93,0,0,1,6,3.47l5.45-4.48h1.81V283.7h-1.94q-2.13-8.29-5.63-12.65t-8.07-4.36q-4.89,0-7,3.74t-2.08,12.86v29.88a14.62,14.62,0,0,0,1,6.31,3.39,3.39,0,0,0,3.21,1.95,3.07,3.07,0,0,0,2.91-2.05,15.58,15.58,0,0,0,.94-6.21V294.8Z" transform="translate(-922.28 -262.01)"/><path d="M1340.48,320.16h3.73v2.09h-8.42a31.68,31.68,0,0,0-4.24.29,26.32,26.32,0,0,0-4.14.9h-1.1l.07-7.6h-.57a13,13,0,0,1-4.31,5.94,10.8,10.8,0,0,1-6.57,2.07q-5.13,0-7.37-3.51t-2.24-12.14V284.65h-3.53v-2.14h8.69a30.23,30.23,0,0,0,4.27-.29,29.11,29.11,0,0,0,4.15-.86H1320v30.86a8.35,8.35,0,0,0,.5,3.33,1.63,1.63,0,0,0,1.54,1.07c1.23,0,2.17-.88,2.81-2.65a23.13,23.13,0,0,0,1-7.62v-21.7h-2.06v-2.14H1331a29.21,29.21,0,0,0,4.19-.29,30.65,30.65,0,0,0,4.13-.86h1.15Z" transform="translate(-922.28 -262.01)"/><path d="M1386.19,315.43l1,.95a14.25,14.25,0,0,1-4.71,5.44,10.8,10.8,0,0,1-6.18,2,6.52,6.52,0,0,1-4.41-1.58,10.65,10.65,0,0,1-2.94-4.74,15.51,15.51,0,0,1-5.35,4.74,14.47,14.47,0,0,1-6.82,1.58,9.2,9.2,0,0,1-7.24-3,12.74,12.74,0,0,1,2-17.77q4.74-3.6,12.87-3.6h3.79V287.32a4,4,0,0,0-.89-2.88,3.86,3.86,0,0,0-2.83-.9,3.38,3.38,0,0,0-1.69.41c-.48.27-.72.56-.72.86a1.78,1.78,0,0,0,.47.83,7.78,7.78,0,0,1,1.62,5.05,5.78,5.78,0,0,1-2,4.73,8.87,8.87,0,0,1-5.74,1.6,7.41,7.41,0,0,1-5.3-1.71,6.59,6.59,0,0,1-1.8-5q0-4.77,3.6-6.84t12.1-2.08a40.3,40.3,0,0,1,10,1,9.83,9.83,0,0,1,5.35,3.06,8.27,8.27,0,0,1,1.64,3.27,25.3,25.3,0,0,1,.49,5.81v20.38a4.4,4.4,0,0,0,.29,1.92,1.12,1.12,0,0,0,1,.51,2.09,2.09,0,0,0,1.36-.49A3.28,3.28,0,0,0,1386.19,315.43Zm-17.9-14.05h-.87a4.22,4.22,0,0,0-4.05,2.07q-1.15,2.07-1.15,7.79a15.63,15.63,0,0,0,.68,5.34,2.27,2.27,0,0,0,2.14,1.73,2.61,2.61,0,0,0,2.47-1.95,18.15,18.15,0,0,0,.78-6.23Z" transform="translate(-922.28 -262.01)"/><path d="M1388.53,322.25V320h3.73V284.65h-3.73v-2.14h8.86a30,30,0,0,0,4.23-.29,29.11,29.11,0,0,0,4.15-.86h1.09v9.82h.51a20.89,20.89,0,0,1,4.44-7.48,8.09,8.09,0,0,1,5.82-2.34,6.44,6.44,0,0,1,5.38,2.55,11.1,11.1,0,0,1,2,6.95,10.44,10.44,0,0,1-2,6.67,6.29,6.29,0,0,1-5.21,2.49,6.19,6.19,0,0,1-4.72-2,7,7,0,0,1-1.88-5v-1.15a4.81,4.81,0,0,0-.17-1.54c-.11-.31-.3-.47-.55-.47q-1.12,0-2.28,4.68a42.57,42.57,0,0,0-1.16,10.2V320h5v2.26Z" transform="translate(-922.28 -262.01)"/><path d="M1454.79,263.86a29.84,29.84,0,0,0,4.25-.31,31.94,31.94,0,0,0,4.13-.89h1.1v57.5h3.6v2.09h-8a31.64,31.64,0,0,0-4.26.29,27.85,27.85,0,0,0-4.16.9h-1.06v-9.2a12.88,12.88,0,0,1-3.66,7.11,9.65,9.65,0,0,1-6.79,2.5q-5.76,0-9.23-5.83t-3.47-15.45q0-9.49,3.47-15.35t9-5.86a10.74,10.74,0,0,1,6.31,1.93,8.79,8.79,0,0,1,3.55,5V266h-4.88v-2.09Zm-11.73,46.6a16.21,16.21,0,0,0,.72,5.69,2.41,2.41,0,0,0,2.28,1.75c1.19,0,2.06-1,2.61-2.9a41.1,41.1,0,0,0,.93-9.64v-7.68a27.36,27.36,0,0,0-.89-8.18c-.6-1.73-1.52-2.59-2.77-2.59a2.3,2.3,0,0,0-2.24,1.79,22.22,22.22,0,0,0-.64,6.55Z" transform="translate(-922.28 -262.01)"/><path d="M1507.5,304.46l-21.4,0v5q0,5.55,1.85,8.41a6,6,0,0,0,5.38,2.85,10.64,10.64,0,0,0,6.55-2.18,20.6,20.6,0,0,0,5.43-6.74l1.22,1.11a17.5,17.5,0,0,1-6.65,8.2,19.22,19.22,0,0,1-10.52,2.73q-8.73,0-13.94-5.87t-5.21-15.41q0-9.42,5.18-15.31a17.22,17.22,0,0,1,13.59-5.9q8.85,0,13.66,6T1507.5,304.46Zm-15-1.89V288.84a8.44,8.44,0,0,0-.78-4.15,2.64,2.64,0,0,0-2.44-1.31,2.59,2.59,0,0,0-2.41,1.31,8.31,8.31,0,0,0-.79,4.15v13.73Z" transform="translate(-922.28 -262.01)"/><path d="M1510.44,322.25V320h3.73V284.65h-3.73v-2.14h8.85a30,30,0,0,0,4.24-.29,29.11,29.11,0,0,0,4.15-.86h1.09v9.82h.5a21,21,0,0,1,4.45-7.48,8.09,8.09,0,0,1,5.82-2.34,6.44,6.44,0,0,1,5.38,2.55,11.1,11.1,0,0,1,2,6.95,10.5,10.5,0,0,1-2,6.67,6.29,6.29,0,0,1-5.21,2.49,6.18,6.18,0,0,1-4.72-2,7,7,0,0,1-1.88-5v-1.15a5.12,5.12,0,0,0-.17-1.54c-.11-.31-.3-.47-.55-.47q-1.12,0-2.28,4.68a42.57,42.57,0,0,0-1.16,10.2V320h4.94v2.26Z" transform="translate(-922.28 -262.01)"/><rect x="100.55" y="68.31" width="535.16" height="2.95"/><path d="M1580.6,296.94,1555,333.27h3.55l23.64-33.74,11.47,20.3h-5.75v2.42h34.58v-2.42h-3.38L1599.82,286l8.35-12a23.33,23.33,0,0,1,5.43-5.79,11.11,11.11,0,0,1,5.84-1.93v-2.34h-21.37v2.34h.71a13.18,13.18,0,0,1,5.58.86,3,3,0,0,1,1.69,2.84,5.9,5.9,0,0,1-.43,2.17,11.3,11.3,0,0,1-1.31,2.39l-6.09,8.83-9.94-17.17h5.6v-2.26h-34.54v2.26h3.71Z" transform="translate(-922.28 -262.01)"/></svg>